# xmcd CD database file
#
# Track frame offsets:
#	150
#	12232
#	24954
#	37458
#	51648
#	64217
#	79657
#	91726
#	106350
#	119517
#	131891
#	144969
#	159265
#	172588
#	186826
#	199524
#	211050
#	223959
#	238108
#	251673
#	265549
#	279853
#
# Disc length: 3888 seconds
#
# Revision: 0
# Processed by: cddbd v1.5PL3 Copyright (c) Steve Scherf et al.
# Submitted via: CDex 1.51
#
DISCID=360f2e16
DTITLE=Various Artist - Gonna Take My Rap: Post-War Chicago BLues
DYEAR=1999
DGENRE=Blues
TTITLE0=Sonny Boy Williamson - Elevator Woman
TTITLE1=James "Beale Street" Clark - Come to Me Baby (What Evil Have I Done)
TTITLE2=Sonny Boy Williamson - Sonny Boy's Jump
TTITLE3=Doctor Clayton's Buddy - Farewell Little Girl
TTITLE4=John Sellers - Let Be B Your Sidetrack
TTITLE5=Willie "Long Time" Smith - Due Respects to You
TTITLE6=Sonny Boy Williamson - G M and O Blues
TTITLE7=Jazz Gillum - Gonna Take My Rap
TTITLE8=Memphis Minnie - Mean Mistreater Blues
TTITLE9=Eddie Boyd - I Had to Let Her Go
TTITLE10=James "Beale Street" Clark - You Can't Make the Grade
TTITLE11=Doctor Clayton's Buddy - Broke and Hungry
TTITLE12=Tampa Red - It's A Brand New Boogy
TTITLE13=Pete Franklin - Casey Brown Blues
TTITLE14=Jazz Gillum - Signifying Woman
TTITLE15=Willie "Long Time" Smith - Flying Cloud Boogie
TTITLE16=Tampa Red - Come On, If You're Coming
TTITLE17=Pete Franklin - Down Behind the Rise
TTITLE18=Memphis Minnie - True Love
TTITLE19=Tampa Red - Please Try To See It My Way
TTITLE20=Jazz Gillum - Hand Reader Blues
TTITLE21=Tampa Red - I'll Find My Way
EXTD=YEAR: 1999
EXTT0=
EXTT1=
EXTT2=
EXTT3=
EXTT4=
EXTT5=
EXTT6=
EXTT7=
EXTT8=
EXTT9=
EXTT10=
EXTT11=
EXTT12=
EXTT13=
EXTT14=
EXTT15=
EXTT16=
EXTT17=
EXTT18=
EXTT19=
EXTT20=
EXTT21=
PLAYORDER=
